<svg xmlns="http://www.w3.org/2000/svg" xml:space="preserve" width="590" height="310" style="shape-rendering:geometricPrecision;text-rendering:geometricPrecision;image-rendering:optimizeQuality;fill-rule:evenodd;clip-rule:evenodd"><defs><style>.fil1{fill:#fff}.fil2{fill:#f7b801;fill-rule:nonzero}</style></defs><g id="Camada_x0020_1"><g id="logotipo"><circle cx="436.64" cy="154.63" r="147.07" style="fill:#f7b801"/><path class="fil1" d="M350.55 122.22c-.83-1.41-1.89-2.9-3.29-4.18-5.31-5.14-12.16-6.07-16.15-7.12-7.29-2.29-8.39-3.14-11.84-6.35-2.71-3.15-3.65-6.21-4.28-9.37a.85.85 0 0 0-.76-.67.832.832 0 0 0-.84.57c-1.45 4.35-1.03 9.56.8 12.76 3.44 6.12 8.12 8.8 15.12 10.9 5.03 1.24 8.4 1.07 14.28 4.07 2.43 1.11 5.5 4.02 7.42 7.2a.822.822 0 0 0 1.53-.43c-.01-1.93-.46-4.57-1.99-7.38zM355.64 105.94c-1.79-2.95-4.29-5.04-7.18-6.76-3.3-1.87-4.12-2.26-4.12-2.26-6.16-3.71-7.09-5.98-8.05-7.5-1.38-2.85-1.57-5.34-1.46-7.75a.817.817 0 0 0-.59-.82.818.818 0 0 0-.95.37c-1.8 3.06-2.45 6.96-1.71 9.75 1.46 5.6 4.66 8.69 9.7 11.78 3.28 1.77 6.44 2.77 9.82 5.61.74.74 3.65 3.27 4.9 7.27.11.37.46.61.84.58.37-.02.69-.3.76-.67.51-2.74.05-6.45-1.96-9.6z"/><circle class="fil1" cx="486.88" cy="119.22" r="27.32"/><path class="fil1" d="M382.09 155.4c-3.16 4.08-3.93 9.71-1.63 14.62l1.43 3.05c-.35.76-1.12 1.29-2.01 1.29h-7.21v-21.68h7.21c1.22 0 2.21.98 2.21 2.2v.52zM522.7 219.37l-37.42 4.55c-7.23.88-12.37 7.45-11.49 14.68.15 1.25.47 2.44.94 3.55 13.53-1.64 22.99-2.31 30.22 4.73.5.48 1.07.8 1.69 1l10.01-1.22c1.82-2.55-3.71-26.47 4.24-26.51.61-.29 1.21-.55 1.81-.78z"/><path class="fil1" d="M553.34 186.28c-.09-17.12-14.08-31.04-31.2-31.04h-65.86c-9.47 0-18.31 4.23-24.25 11.59l-14.78 18.3-13.84-27.52c-3.02-6-10-8.68-16.17-6.49-1.74-3.11-5.07-5.23-8.89-5.23h-5.68v-4.84a3.53 3.53 0 0 0-3.53-3.53h-33.92c-1.95 0-3.54 1.58-3.54 3.53v37.82c0 6.85 5.56 12.4 12.4 12.4h16.19c6.07 0 11.12-4.37 12.18-10.14h5.9c2.37 0 4.55-.82 6.28-2.19l18.27 36.3c4.3 8.54 16 9.81 22.02 2.35l26.72-33.09 2.83 95.82.32-6c.11-2.09 3.36-20.94 11.32-28.53-.8-1.89-1.35-3.92-1.61-6.06-1.51-12.36 7.29-23.6 19.65-25.1l37.31-4.54v-23.65c0-1.52 1.22-2.76 2.74-2.76a2.749 2.749 0 0 1 2.77 2.73l.16 31.85c2.98-.32 5.89.27 8.69 2.05 3.88 9.14.56 13.17-6.52 14.77-.85 6.35 1.31 9.11 5.57 9.36l5.32-.65c2.43-.61 5.19-1.61 8.22-2.92l1.44-20.24 3.66.1-.17-34.45z"/><path class="fil1" d="m539.2 220.68 8.06 20.2c-7.52 4.42-22.18 4.62-31.8 5.92l-11.11-16.97c.76-5.58 8.41-6.14 15.5-9.52 8.48-4.04 18.58-3.17 19.35.37zM549.21 217.84h4.23c.63 13.48-.41 23.21-5.88 23.03l1.65-23.03z"/><path class="fil2" d="M83.46 245.72c-.57 1.73-1.31 3.97-2.2 6.73-.9 2.76-1.89 5.79-2.96 9.09-1.08 3.3-2.19 6.8-3.34 10.49-1.15 3.7-2.31 7.3-3.5 10.82a592 592 0 0 1-3.49 10.06 323.61 323.61 0 0 1-3.12 8.34c-.29.57-.88 1.02-1.78 1.34-.9.32-2.31.49-4.25.49-1.22 0-2.47-.08-3.76-.22-1.3-.14-2.5-.43-3.61-.86-1.11-.43-2.08-1-2.9-1.72-.83-.72-1.46-1.62-1.89-2.69-1.07-3.66-2.1-7.73-3.06-12.21-.97-4.49-1.92-9.06-2.86-13.72-.93-4.67-1.84-9.24-2.74-13.72-.9-4.49-1.81-8.56-2.74-12.22 0 1.01-.04 2.73-.11 5.17s-.14 5.27-.22 8.5c-.07 3.23-.16 6.71-.26 10.44-.11 3.73-.2 7.37-.27 10.92-.08 3.55-.15 6.85-.22 9.9-.07 3.05-.11 5.54-.11 7.48 0 2.15-.12 3.51-.37 4.08-.25.58-.7.87-1.35.87h-5.92c-4.08 0-6.97-.81-8.66-2.43-1.68-1.61-2.53-4-2.53-7.15 0-.86.06-2.31.17-4.36.1-2.04.26-4.46.48-7.26.21-2.8.45-5.87.7-9.2.25-3.34.52-6.73.81-10.17.35-4.66.66-8.55.91-11.68.25-3.11.45-5.72.59-7.8.15-2.08.27-3.76.38-5.05.11-1.29.18-2.44.21-3.45.04-1 .08-1.95.11-2.85.04-.89.05-2.02.05-3.39 0-.57.22-.98.65-1.23.43-.25.83-.38 1.18-.38h15.07c2.8 0 5.09.45 6.89 1.34 1.79.9 3.26 2.28 4.41 4.15 1.14 1.86 2.08 4.28 2.79 7.26.72 2.98 1.39 6.51 1.99 10.6.61 4.09 1.3 8.8 2.05 14.15.75 5.34 1.74 11.35 2.96 18.02 1.15-4.45 2.11-8.14 2.9-11.08.79-2.94 1.46-5.4 1.99-7.37.54-1.98.99-3.61 1.35-4.9.36-1.29.68-2.49.97-3.6.28-1.12.61-2.32.97-3.61.35-1.29.78-2.9 1.29-4.84.5-1.94 1.13-4.36 1.88-7.26.75-2.91 1.7-6.58 2.85-11.03.14-.43.4-.84.75-1.24.36-.39 1.01-.59 1.94-.59h16.79c2.29 0 4.14.23 5.54.7 1.4.46 2.49 1.13 3.28 1.99.79.86 1.33 1.92 1.61 3.17.29 1.26.43 2.71.43 4.36 0 1.65-.09 4.32-.26 8.02-.18 3.69-.43 7.85-.76 12.48-.32 4.63-.64 9.41-.97 14.36-.32 4.95-.64 9.54-.97 13.78-.32 4.23-.59 7.82-.8 10.76-.22 2.94-.36 4.66-.43 5.16-.07.57-.22.99-.43 1.24-.22.25-.65.38-1.29.38h-5.92c-4.09 0-6.98-.81-8.66-2.43-1.69-1.61-2.53-3.71-2.53-6.29 0-.79.09-2.22.27-4.3.18-2.09.41-4.52.7-7.32.28-2.8.61-5.87.96-9.2.36-3.34.69-6.65.97-9.95.29-3.3.56-6.51.81-9.63.25-3.13.45-5.87.59-8.24z"/><path id="1" class="fil2" d="M108.64 289.84c0-6.45 2.91-11.51 8.72-15.17 5.81-3.66 14.38-5.63 25.71-5.92.07-.79.13-1.45.16-1.99.04-.54.06-1.2.06-1.99 0-2.3-.43-4.12-1.29-5.49-.86-1.36-2.66-2.04-5.38-2.04-1.51 0-2.73.21-3.66.64-.93.43-1.69 1.03-2.26 1.78-.58.75-1.04 1.67-1.4 2.74-.36 1.08-.68 2.26-.97 3.55-.14.65-.46 1.06-.97 1.24-.5.18-1.29.27-2.36.27-7.32 0-10.98-2.76-10.98-8.29 0-2.22.52-4.34 1.56-6.34 1.04-2.01 2.58-3.75 4.63-5.22 2.04-1.47 4.61-2.64 7.69-3.5 3.09-.86 6.67-1.29 10.76-1.29 7.96 0 13.74 1.65 17.33 4.95 3.58 3.3 5.37 7.96 5.37 13.99 0 .79-.08 2.2-.26 4.25-.18 2.04-.4 4.19-.65 6.45s-.47 4.4-.65 6.4c-.17 2.01-.26 3.41-.26 4.2 0 1.8.32 3.07.96 3.82.65.75 1.38 1.27 2.21 1.56.82.29 1.56.5 2.21.65.64.14.96.5.96 1.07 0 1.58-.21 3.2-.64 4.84-.43 1.65-1.13 3.16-2.1 4.52-.97 1.37-2.3 2.48-3.98 3.34-1.69.86-3.75 1.29-6.19 1.29-3.44 0-6.02-.82-7.75-2.47-1.72-1.65-2.86-3.95-3.44-6.89-1.72 2.51-3.96 4.7-6.72 6.56-2.77 1.87-6.37 2.8-10.82 2.8-2.15 0-4.18-.25-6.08-.75-1.9-.5-3.55-1.33-4.95-2.48-1.39-1.14-2.51-2.63-3.33-4.46-.83-1.83-1.24-4.04-1.24-6.62zm33.46-12.27c-1.86 0-3.69.15-5.48.43-1.8.29-3.39.74-4.79 1.35-1.4.61-2.53 1.42-3.39 2.42-.86 1-1.29 2.22-1.29 3.66 0 1.65.52 2.8 1.56 3.44 1.04.65 2.17.97 3.39.97 1.15 0 2.29-.25 3.44-.75s2.17-1.28 3.07-2.32c.89-1.04 1.67-2.31 2.31-3.82.65-1.5 1.04-3.3 1.18-5.38z"/><path id="2" class="fil2" d="M207.2 269.61c-.43 0-.91-.02-1.45-.05-.54-.04-1.06-.11-1.56-.22-.5-.1-.93-.25-1.29-.43s-.54-.41-.54-.7c0-.93.04-1.79.11-2.58s.1-1.61.1-2.47c0-1.58-.21-2.87-.64-3.88-.43-1-1.29-1.5-2.58-1.5-2.01 0-3.68 1.3-5.01 3.92-1.32 2.62-2.17 6.55-2.52 11.78-.15 2.3-.35 4.9-.6 7.81-.25 2.9-.48 5.7-.7 8.39-.21 2.69-.39 5.07-.53 7.15-.15 2.08-.22 3.45-.22 4.09 0 .72-.25 1.26-.75 1.62-.5.36-1.04.54-1.62.54h-3.87c-2.22 0-4.04-.24-5.43-.7-1.4-.47-2.51-1.13-3.34-2-.82-.86-1.4-1.91-1.72-3.17-.32-1.25-.49-2.71-.49-4.36 0-1.07.06-2.6.17-4.57.1-1.97.3-4.7.59-8.18.29-3.48.63-7.89 1.02-13.23.39-5.35.88-11.96 1.45-19.85.15-2.08.9-3.13 2.26-3.13h4.2c2.01 0 3.69.22 5.06.65 1.36.43 2.47 1.02 3.33 1.78.86.75 1.49 1.63 1.88 2.63.4 1.01.67 2.05.81 3.12.86-1.65 1.88-3.06 3.07-4.25 1.18-1.18 2.42-2.15 3.71-2.9a14.57 14.57 0 0 1 3.98-1.62c1.37-.32 2.62-.48 3.77-.48 1.36 0 2.74.25 4.14.75 1.4.5 2.67 1.26 3.82 2.26 1.15 1.01 2.06 2.3 2.74 3.88.69 1.57 1.03 3.44 1.03 5.59 0 1.94-.29 3.77-.86 5.49-.58 1.72-1.4 3.24-2.48 4.57a11.383 11.383 0 0 1-3.93 3.12c-1.54.76-3.24 1.13-5.11 1.13z"/><path id="3" class="fil2" d="M220.33 289.84c0-6.45 2.9-11.51 8.71-15.17 5.82-3.66 14.39-5.63 25.72-5.92.07-.79.13-1.45.16-1.99.04-.54.06-1.2.06-1.99 0-2.3-.43-4.12-1.3-5.49-.85-1.36-2.65-2.04-5.38-2.04-1.5 0-2.72.21-3.65.64-.94.43-1.69 1.03-2.26 1.78-.58.75-1.04 1.67-1.4 2.74-.36 1.08-.68 2.26-.97 3.55-.14.65-.47 1.06-.97 1.24-.5.18-1.29.27-2.37.27-7.31 0-10.97-2.76-10.97-8.29 0-2.22.52-4.34 1.56-6.34 1.04-2.01 2.58-3.75 4.63-5.22 2.04-1.47 4.61-2.64 7.69-3.5 3.08-.86 6.67-1.29 10.76-1.29 7.96 0 13.74 1.65 17.32 4.95 3.59 3.3 5.38 7.96 5.38 13.99 0 .79-.09 2.2-.27 4.25-.17 2.04-.39 4.19-.64 6.45s-.47 4.4-.65 6.4c-.18 2.01-.27 3.41-.27 4.2 0 1.8.33 3.07.97 3.82.65.75 1.38 1.27 2.21 1.56.82.29 1.56.5 2.2.65.65.14.97.5.97 1.07 0 1.58-.21 3.2-.64 4.84-.43 1.65-1.13 3.16-2.1 4.52-.97 1.37-2.3 2.48-3.98 3.34-1.69.86-3.75 1.29-6.19 1.29-3.44 0-6.03-.82-7.75-2.47-1.72-1.65-2.87-3.95-3.44-6.89-1.72 2.51-3.96 4.7-6.73 6.56-2.76 1.87-6.36 2.8-10.81 2.8-2.15 0-4.18-.25-6.08-.75-1.9-.5-3.55-1.33-4.95-2.48-1.4-1.14-2.51-2.63-3.33-4.46-.83-1.83-1.24-4.04-1.24-6.62zm33.46-12.27c-1.86 0-3.69.15-5.49.43-1.79.29-3.38.74-4.78 1.35-1.4.61-2.53 1.42-3.39 2.42-.86 1-1.29 2.22-1.29 3.66 0 1.65.52 2.8 1.56 3.44 1.04.65 2.17.97 3.39.97 1.14 0 2.29-.25 3.44-.75s2.17-1.28 3.07-2.32c.89-1.04 1.66-2.31 2.31-3.82.65-1.5 1.04-3.3 1.18-5.38z"/><path id="4" class="fil2" d="M307.27 258.42c-.21 2.73-.45 5.42-.7 8.07-.25 2.66-.48 5.17-.7 7.53-.21 2.37-.37 4.49-.48 6.35-.11 1.87-.16 3.3-.16 4.31 0 1.86.21 3.1.64 3.71.43.61 1.15.91 2.15.91.79 0 1.47-.14 2.05-.43.57-.28 1.11-.61 1.61-.97s.95-.68 1.35-.96c.39-.29.84-.44 1.34-.44.5 0 .97.29 1.4.87.43.57.65 1.9.65 3.98 0 3.94-1.08 7.06-3.23 9.36-2.15 2.29-5.85 3.44-11.08 3.44-5.17 0-8.99-1.2-11.46-3.6-2.48-2.41-3.72-6.08-3.72-11.03 0-1.08.06-2.35.16-3.82.11-1.47.27-3.39.49-5.76.22-2.37.48-5.27.81-8.71.32-3.45.66-7.72 1.02-12.81h-5.7c-.58 0-.92-.12-1.03-.38-.1-.25-.16-.62-.16-1.12l.33-5.49c.07-.94.19-1.85.37-2.75.18-.89.54-1.7 1.08-2.42s1.31-1.29 2.31-1.72c1.01-.43 2.33-.65 3.98-.65.5-1.29 1.08-2.83 1.72-4.62.65-1.79 1.3-3.53 1.94-5.22.65-1.69 1.27-3.1 1.88-4.25.61-1.15 1.17-1.72 1.67-1.72h3.12c3.02 0 5.09.93 6.24 2.8 1.15 1.86 1.72 4.08 1.72 6.67 0 1.43-.1 3.55-.32 6.34h11.3c1.15 0 1.72.51 1.72 1.51l-.43 5.81c-.14 2.15-.73 3.89-1.77 5.22-1.04 1.33-3.18 1.99-6.41 1.99h-5.7z"/><path id="5" class="fil2" d="M350.42 304.15c-4.95 0-9.06-.7-12.32-2.1-3.27-1.4-5.87-3.31-7.8-5.75-1.94-2.44-3.3-5.29-4.09-8.56-.79-3.26-1.19-6.76-1.19-10.49 0-4.3.52-8.52 1.57-12.64 1.04-4.13 2.81-7.8 5.32-11.03 2.51-3.23 5.83-5.83 9.95-7.8 4.13-1.97 9.28-2.96 15.44-2.96 9.04 0 15.52 2.21 19.43 6.62s5.86 10.6 5.86 18.56c0 2.22-.16 4.68-.48 7.37-.33 2.69-.94 5.36-1.83 8.02-.9 2.65-2.12 5.23-3.66 7.74s-3.5 4.74-5.87 6.67c-2.36 1.94-5.21 3.48-8.55 4.63-3.34 1.15-7.26 1.72-11.78 1.72zm5.06-47.02c-2.73 0-4.9.7-6.51 2.1-1.62 1.4-2.84 3.08-3.66 5.06-.83 1.97-1.36 4.05-1.62 6.24-.25 2.18-.37 4.03-.37 5.54 0 4.73.75 8.21 2.26 10.43 1.5 2.23 3.66 3.34 6.45 3.34 2.51 0 4.58-.79 6.19-2.37 1.61-1.58 2.87-3.48 3.77-5.7.89-2.22 1.5-4.56 1.82-6.99.33-2.44.49-4.49.49-6.14 0-3.58-.66-6.4-1.99-8.44-1.33-2.05-3.61-3.07-6.83-3.07z"/><path id="6" class="fil2" d="M427.35 293.61c0-1.58.13-3.64.38-6.19.25-2.55.5-5.24.75-8.07s.5-5.58.76-8.23c.25-2.66.37-4.88.37-6.67 0-1.87-.45-3.54-1.34-5.01-.9-1.47-2.64-2.2-5.22-2.2-2.51 0-4.59.61-6.24 1.83-1.65 1.22-3.03 3.44-4.15 6.67-1.11 3.23-2.02 7.67-2.74 13.34-.72 5.67-1.4 12.95-2.04 21.84-.07.86-.25 1.44-.54 1.73-.29.28-.9.43-1.83.43h-3.88c-2.22 0-4.03-.24-5.43-.7-1.4-.47-2.51-1.13-3.33-2-.83-.86-1.4-1.91-1.73-3.17-.32-1.25-.48-2.71-.48-4.36 0-1.07.05-2.6.16-4.57.11-1.97.31-4.7.59-8.18.29-3.48.63-7.89 1.03-13.23.39-5.35.87-11.96 1.45-19.85.07-1.58.25-2.51.54-2.8.21-.22.79-.33 1.72-.33h4.19c2.16 0 3.93.26 5.33.76s2.53 1.16 3.39 1.99c.86.82 1.47 1.79 1.83 2.9.36 1.12.57 2.25.64 3.39 2.23-3.8 4.78-6.43 7.64-7.9 2.87-1.48 6.46-2.21 10.76-2.21 3.02 0 5.64.32 7.86.97 2.22.64 4.07 1.74 5.54 3.28 1.47 1.54 2.56 3.55 3.28 6.03.72 2.47 1.08 5.54 1.08 9.2 0 1.14-.07 2.79-.22 4.94-.14 2.16-.32 4.51-.53 7.05-.22 2.55-.45 5.2-.7 7.96-.26 2.77-.49 5.33-.7 7.7-.22 2.37-.4 4.45-.54 6.24s-.22 2.98-.22 3.55c0 1.58-.18 2.53-.54 2.85-.35.32-1.14.49-2.36.49h-3.45c-2.29 0-4.16-.22-5.59-.65-1.44-.43-2.55-1.04-3.34-1.83-.78-.79-1.34-1.77-1.66-2.96-.33-1.18-.49-2.53-.49-4.03z"/><path id="7" class="fil2" d="M482.12 304.15c-3.16 0-6.29-.39-9.41-1.18-3.12-.79-5.92-2.15-8.4-4.09-2.47-1.94-4.5-4.52-6.08-7.75-1.57-3.23-2.36-7.28-2.36-12.16 0-1.79.14-3.94.43-6.45.28-2.51.84-5.1 1.66-7.75.83-2.65 1.98-5.29 3.45-7.91 1.47-2.62 3.39-4.97 5.75-7.05 2.37-2.08 5.24-3.76 8.61-5.05 3.37-1.3 7.39-1.94 12.05-1.94 3.73 0 6.89.43 9.47 1.29 2.58.86 4.66 2.03 6.24 3.5 1.58 1.47 2.73 3.17 3.45 5.11.71 1.94 1.07 4.02 1.07 6.24 0 3.3-.66 6.1-1.99 8.39-1.33 2.3-3.05 4.22-5.16 5.76-2.12 1.54-4.47 2.74-7.05 3.6-2.58.86-5.13 1.53-7.64 1.99-2.51.47-4.82.76-6.94.86-2.12.11-3.75.17-4.9.17 0 1.36.2 2.7.6 4.03.39 1.33.98 2.49 1.77 3.5.79 1 1.83 1.83 3.12 2.47 1.29.65 2.87.97 4.74.97 1.86 0 3.31-.3 4.35-.91 1.04-.61 1.89-1.29 2.53-2.05.65-.75 1.2-1.43 1.67-2.04.47-.61 1.09-.92 1.88-.92.36 0 .99.09 1.89.27.89.18 1.81.56 2.74 1.13.93.58 1.76 1.36 2.47 2.37.72 1 1.08 2.29 1.08 3.87 0 2.08-.64 3.88-1.94 5.38-1.29 1.51-2.96 2.73-5 3.66-2.04.93-4.32 1.62-6.83 2.05-2.51.43-4.95.64-7.32.64zm2.04-47.02c-1.57 0-2.92.45-4.03 1.35-1.11.89-2.04 2.02-2.8 3.38-.75 1.37-1.32 2.87-1.72 4.52-.39 1.65-.7 3.23-.91 4.74 4.44-.07 8.05-.83 10.81-2.26 2.76-1.44 4.14-3.48 4.14-6.13 0-1.44-.45-2.73-1.34-3.88-.9-1.15-2.28-1.72-4.15-1.72z"/><path id="8" class="fil2" d="M525.59 303.08c-2.22 0-4.03-.24-5.43-.7-1.4-.47-2.51-1.13-3.34-2-.82-.86-1.4-1.91-1.72-3.17-.32-1.25-.48-2.71-.48-4.36 0-1.07.05-2.6.16-4.57.11-1.97.3-4.7.59-8.18.29-3.48.63-7.89 1.02-13.23.4-5.35.88-11.96 1.45-19.85.08-1.58.26-2.51.54-2.8.22-.22.79-.33 1.72-.33h4.2c2.22 0 4.04.22 5.43.65 1.4.43 2.52 1.08 3.34 1.94.83.86 1.4 1.9 1.72 3.12.32 1.22.49 2.58.49 4.09 0 1.07-.08 2.69-.22 4.84s-.34 5.07-.59 8.77c-.25 3.69-.59 8.28-1.02 13.77-.43 5.49-.97 12.11-1.62 19.85-.07.86-.25 1.44-.54 1.73-.28.28-.89.43-1.83.43h-3.87zm-7.64-71.88c0-2.87 1.04-5.13 3.12-6.78 2.08-1.65 4.88-2.47 8.39-2.47 3.09 0 5.33.62 6.73 1.88 1.4 1.25 2.1 2.92 2.1 5 0 2.65-.99 4.86-2.96 6.62-1.97 1.76-4.86 2.63-8.66 2.63-5.81 0-8.72-2.29-8.72-6.88z"/><path id="9" class="fil2" d="M554 283.92c3.01 0 5.16.74 6.45 2.21s1.94 3.53 1.94 6.19c0 1.14-.14 2.4-.43 3.76-.29 1.36-.81 2.64-1.56 3.82-.75 1.19-1.83 2.19-3.23 3.01-1.4.83-3.21 1.24-5.43 1.24-3.23 0-5.42-.84-6.57-2.53-1.14-1.68-1.72-3.78-1.72-6.29 0-1.44.18-2.84.54-4.2.36-1.36.93-2.58 1.72-3.66.79-1.07 1.87-1.93 3.23-2.58 1.36-.65 3.05-.97 5.06-.97zm2.36-7.53c-1.79 0-3.26-.21-4.41-.65-1.14-.43-2.04-1.09-2.69-1.99-.64-.89-1.09-2-1.34-3.33s-.38-2.85-.38-4.57c0-.65.02-1.35.05-2.1.04-.76.11-1.71.22-2.85.11-1.15.22-2.59.32-4.31.11-1.72.27-3.93.49-6.61.21-2.7.46-5.94.75-9.74.29-3.81.61-8.36.97-13.67.07-1.58.25-2.51.54-2.8.21-.21.79-.32 1.72-.32h6.35c3.94 0 6.76.77 8.44 2.31 1.69 1.55 2.53 3.36 2.53 5.44 0 1.29-.12 2.99-.37 5.11-.26 2.12-.6 4.47-1.03 7.05-.43 2.58-.91 5.29-1.45 8.12-.54 2.83-1.07 5.63-1.61 8.39-.54 2.77-1.06 5.4-1.56 7.91-.51 2.51-.94 4.67-1.29 6.46-.15.86-.38 1.43-.7 1.72-.33.29-.88.43-1.67.43h-3.88z"/><path class="fil1" d="M436.64 301.71c-1.94 0-3.88-.05-5.8-.13-.51-.29-.94-.61-1.31-.98-.79-.79-1.34-1.78-1.67-2.96-.32-1.18-.48-2.53-.48-4.03 0-1.58.12-3.65.37-6.19.26-2.55.51-5.24.76-8.07.25-2.84.5-5.58.75-8.23.25-2.66.38-4.88.38-6.68 0-1.86-.45-3.53-1.35-5-.89-1.47-2.63-2.21-5.22-2.21-2.51 0-4.59.61-6.24 1.83-1.65 1.22-3.03 3.45-4.14 6.67-1.11 3.23-2.03 7.68-2.74 13.35-.67 5.23-1.3 11.85-1.9 19.84a144.82 144.82 0 0 1-17.32-4.53c-.03-.49-.05-1-.05-1.54 0-1.07.06-2.6.17-4.57.1-1.97.3-4.7.59-8.18.28-3.48.62-7.89 1.02-13.24.39-5.34.88-11.96 1.45-19.85.07-1.58.25-2.51.54-2.8.22-.21.79-.32 1.72-.32h4.2c2.15 0 3.93.25 5.32.75 1.4.51 2.53 1.17 3.4 1.99.86.83 1.47 1.8 1.82 2.91.36 1.11.58 2.24.65 3.39 2.22-3.8 4.77-6.44 7.64-7.91 2.87-1.47 6.46-2.21 10.76-2.21 3.01 0 5.63.33 7.86.97 2.22.65 4.07 1.74 5.54 3.28 1.47 1.55 2.56 3.56 3.28 6.03.72 2.48 1.08 5.54 1.08 9.2 0 1.15-.08 2.8-.22 4.95-.14 2.15-.32 4.5-.54 7.05-.21 2.55-.45 5.2-.7 7.96-.25 2.76-.48 5.33-.7 7.7-.21 2.36-.39 4.44-.53 6.24-.15 1.79-.22 2.97-.22 3.55 0 .71-.04 1.29-.11 1.75-2.67.14-5.35.22-8.06.22zm-58.99-12.32c-5.34-2.35-10.53-5-15.52-7.94.83-2.13 1.4-4.35 1.7-6.68.33-2.44.49-4.48.49-6.13 0-3.59-.66-6.4-1.99-8.45-1.33-2.04-3.61-3.06-6.83-3.06-2.73 0-4.9.7-6.51 2.09-1.62 1.4-2.84 3.09-3.66 5.06-.61 1.46-1.06 2.98-1.36 4.55-4.87-3.95-9.48-8.2-13.8-12.73.54-.87 1.13-1.71 1.76-2.52 2.51-3.23 5.83-5.83 9.95-7.81 4.13-1.97 9.28-2.96 15.45-2.96 9.03 0 15.51 2.21 19.42 6.62 3.91 4.41 5.86 10.6 5.86 18.57 0 2.22-.16 4.68-.48 7.37-.32 2.69-.93 5.36-1.83 8.01-.69 2.05-1.57 4.05-2.65 6.01zm-56.11-43.2c-.6-.76-1.2-1.53-1.79-2.3h.13c1.15 0 1.72.5 1.72 1.51l-.06.79zm244.42-21.44c-4.9 9-10.71 17.44-17.31 25.18.22-2.68.47-5.91.75-9.7.29-3.8.61-8.36.97-13.66.07-1.58.25-2.51.54-2.8.22-.22.79-.32 1.72-.32h6.35c2.96 0 5.29.43 6.98 1.3zm-31.25 39.48a148.19 148.19 0 0 1-19.2 14.56c.26-3.25.57-7.23.91-11.93.07-.97 1.17-5.02 1.65-9.32.15-1.33 1.19-11.32 2.54-11.32h4.2c2.22 0 4.03.22 5.43.65 1.4.43 2.51 1.07 3.34 1.94.82.86 1.4 1.9 1.72 3.12.28 1.04-.13 5.38-.21 6.6l-.38 5.7zm-33.91 22.78c-11.34 5.5-23.5 9.59-36.24 12.04l-.22-.17c-2.47-1.94-4.5-4.52-6.08-7.75-1.58-3.23-2.37-7.28-2.37-12.16 0-1.79.15-3.94.43-6.46.29-2.51.85-5.09 1.67-7.74.83-2.66 1.98-5.29 3.45-7.91 1.47-2.62 3.39-4.97 5.75-7.05 2.37-2.08 5.24-3.77 8.61-5.06 3.37-1.29 7.39-1.94 12.05-1.94 3.73 0 6.89.44 9.47 1.3 2.58.86 4.67 2.02 6.24 3.49 1.58 1.47 2.73 3.18 3.45 5.12.71 1.93 1.07 4.01 1.07 6.24 0 3.3-.66 6.09-1.99 8.39-1.32 2.3-3.05 4.21-5.16 5.76-2.12 1.54-4.47 2.74-7.05 3.6-2.58.86-5.13 1.53-7.64 1.99-2.51.47-4.83.76-6.94.86-2.12.11-3.75.16-4.9.16 0 1.37.2 2.71.59 4.04.4 1.33.99 2.49 1.78 3.5.79 1 1.83 1.83 3.12 2.47 1.29.65 2.87.97 4.73.97 1.87 0 3.32-.31 4.36-.91 1.04-.62 1.89-1.3 2.53-2.05.65-.75 1.2-1.43 1.67-2.04.47-.61 1.09-.92 1.88-.92.36 0 .99.09 1.89.27.89.18 1.81.56 2.74 1.13.39.24.76.52 1.11.83zm-16.61-29.88c-1.57 0-2.92.44-4.03 1.34-1.11.9-2.05 2.03-2.8 3.39-.75 1.36-1.33 2.87-1.72 4.52-.4 1.65-.7 3.23-.91 4.74 4.44-.08 8.05-.83 10.81-2.26 2.76-1.44 4.14-3.48 4.14-6.14 0-1.43-.45-2.72-1.34-3.87-.9-1.15-2.28-1.72-4.15-1.72z"/></g></g></svg>